<?xml version="1.0" encoding="iso-8859-1"?>
<!-- Generator: Adobe Illustrator 19.0.0, SVG Export Plug-In . SVG Version: 6.00 Build 0)  -->
<svg version="1.1" id="Capa_1" xmlns="http://www.w3.org/2000/svg" xmlns:xlink="http://www.w3.org/1999/xlink" x="0px" y="0px"
	 viewBox="0 0 463.412 463.412" style="enable-background:new 0 0 463.412 463.412;" xml:space="preserve">
<g>
	<path style="fill:#4DCFE0;" d="M277.153,109.714h-30.824c-8.882,0-15.673-6.792-15.673-15.673s6.792-15.673,15.673-15.673h30.824
		c8.882,0,15.673,6.792,15.673,15.673S286.035,109.714,277.153,109.714z"/>
	<path style="fill:#4DCFE0;" d="M277.153,178.678h-30.824c-8.882,0-15.673-6.792-15.673-15.673s6.792-15.673,15.673-15.673h30.824
		c8.882,0,15.673,6.792,15.673,15.673S286.035,178.678,277.153,178.678z"/>
	<path style="fill:#4DCFE0;" d="M277.153,248.163h-30.824c-8.882,0-15.673-6.792-15.673-15.673s6.792-15.673,15.673-15.673h30.824
		c8.882,0,15.673,6.792,15.673,15.673S286.035,248.163,277.153,248.163z"/>
</g>
<path style="fill:#1185E0;" d="M231.7,463.412c-62.171,0-112.327-48.588-112.327-108.147c0-34.482,17.763-65.829,48.588-86.204
	V62.171C167.962,27.69,196.696,0,232.223,0s64.261,27.69,64.261,62.171v206.367c30.824,20.376,48.065,51.722,47.543,86.727
	C344.027,414.824,293.872,463.412,231.7,463.412z M232.223,31.347c-18.286,0-32.914,13.584-32.914,30.824v215.771
	c0,5.747-3.135,10.971-7.837,13.584c-15.151,8.359-40.751,28.212-40.751,63.739c0,42.318,36.571,76.8,80.98,76.8
	s80.98-34.482,80.98-76.8c0.522-34.482-21.42-53.812-39.706-64.261c-4.702-2.612-7.837-7.837-7.837-13.584V62.171
	C265.137,44.931,250.509,31.347,232.223,31.347z"/>
<g>
</g>
<g>
</g>
<g>
</g>
<g>
</g>
<g>
</g>
<g>
</g>
<g>
</g>
<g>
</g>
<g>
</g>
<g>
</g>
<g>
</g>
<g>
</g>
<g>
</g>
<g>
</g>
<g>
</g>
</svg>
