<?xml version="1.0" encoding="iso-8859-1"?>
<!-- Generator: Adobe Illustrator 19.0.0, SVG Export Plug-In . SVG Version: 6.00 Build 0)  -->
<svg version="1.1" id="Capa_1" xmlns="http://www.w3.org/2000/svg" xmlns:xlink="http://www.w3.org/1999/xlink" x="0px" y="0px"
	 viewBox="0 0 411.69 411.69" style="enable-background:new 0 0 411.69 411.69;" xml:space="preserve">
<g>
	<path style="fill:#1185E0;" d="M108.716,104.208c-3.135,0-6.792-1.045-9.404-3.135c-6.792-5.224-7.837-15.151-3.135-21.943
		c6.792-8.882,15.151-16.718,26.122-24.555c7.314-4.702,16.718-3.135,21.943,4.18c2.09,2.612,2.612,5.747,2.612,8.882
		c0,5.224-2.612,9.927-6.792,13.061c-6.792,4.702-13.584,10.971-19.331,17.763C118.12,102.118,113.418,104.208,108.716,104.208z"/>
	<path style="fill:#1185E0;" d="M266.981,411.167h-2.09c-22.988,0-36.049-27.69-44.931-52.245V358.4l-12.539-40.751L194.361,358.4
		v0.522c-9.404,25.6-21.943,52.245-44.931,52.245h-2.09c-0.522,0-1.045,0-1.045,0c-18.286-1.567-32.914-15.151-43.363-39.706
		c-7.314-17.241-13.061-40.751-16.196-68.963c-1.045-8.359-2.612-16.196-4.18-24.033c-0.522-2.612-1.045-6.269-2.09-10.449
		c-3.135-15.151-9.927-51.2-17.241-60.604l-0.522-0.522c-0.522-0.522-1.045-1.567-1.567-2.09c-0.522-0.522-1.045-1.567-1.567-2.09
		c-18.808-22.465-29.257-50.678-29.257-79.935c0-27.69,8.882-53.812,25.6-75.755c0.522-1.045,1.045-1.567,2.09-2.612
		c7.314-8.882,16.196-17.241,25.6-23.51C103.455,7.314,127.487,0,152.043,0c22.465,0,44.931,6.269,63.739,17.763
		c23.51-10.449,56.947-18.808,95.608-6.269c29.78,9.404,53.812,35.004,63.739,68.441c13.584,42.318,4.702,90.384-23.51,128.522
		c-7.314,9.404-14.106,45.453-17.241,60.604c-1.045,4.18-1.567,7.837-2.09,10.449c-1.567,7.314-3.135,15.151-4.18,23.51
		c-4.18,30.302-9.404,52.245-16.196,68.963c-13.061,30.824-30.824,38.661-43.363,39.706
		C268.026,411.167,267.504,411.167,266.981,411.167z M265.936,379.82L265.936,379.82c5.224-1.045,11.494-8.359,16.718-20.898
		c5.747-14.106,10.449-33.437,14.106-60.604c1.045-9.404,2.612-17.763,4.18-26.122c0.522-2.612,1.045-6.269,2.09-9.927
		c5.747-30.824,12.016-59.559,22.988-73.665c21.943-29.78,29.257-67.396,18.286-100.31c-7.314-24.033-23.51-41.273-43.363-47.543
		c-32.914-10.449-61.649-1.567-79.935,8.359c-5.225,2.612-12.016,2.09-16.718-1.567c-14.629-10.971-33.437-17.241-52.767-17.241
		c-18.286,0-36.049,5.224-50.678,15.673c-6.792,4.702-13.584,10.971-18.808,17.241c-0.522,0.522-1.045,1.567-1.567,2.612
		c-12.539,16.718-19.331,36.049-19.331,56.947c0,21.943,7.837,43.363,22.465,60.082c0.522,0.522,1.045,1.045,1.045,1.567
		c0.522,0.522,1.045,1.567,1.567,2.09c0.522,1.045,1.567,2.09,2.09,2.612c10.449,14.106,16.718,42.841,22.465,73.143
		c0.522,3.657,1.567,7.314,2.09,9.927c1.567,8.359,3.135,17.241,4.18,26.645c3.135,25.078,7.837,45.976,14.106,60.604
		c3.135,7.314,9.404,19.853,16.718,20.898l0,0c1.567-1.045,7.314-6.792,16.196-31.347l23.51-73.665c0,0,0-0.522,0.522-0.522
		c3.135-7.837,10.449-13.061,19.331-13.061c8.359,0,16.196,5.224,19.331,13.061c0,0.522,0,0.522,0.522,1.045l22.988,73.665
		C258.1,372.506,264.369,378.775,265.936,379.82z"/>
</g>
<g>
</g>
<g>
</g>
<g>
</g>
<g>
</g>
<g>
</g>
<g>
</g>
<g>
</g>
<g>
</g>
<g>
</g>
<g>
</g>
<g>
</g>
<g>
</g>
<g>
</g>
<g>
</g>
<g>
</g>
</svg>
