<?xml version="1.0" encoding="iso-8859-1"?>
<!-- Generator: Adobe Illustrator 19.0.0, SVG Export Plug-In . SVG Version: 6.00 Build 0)  -->
<svg version="1.1" id="Capa_1" xmlns="http://www.w3.org/2000/svg" xmlns:xlink="http://www.w3.org/1999/xlink" x="0px" y="0px"
	 viewBox="0 0 498.416 498.416" style="enable-background:new 0 0 498.416 498.416;" xml:space="preserve">
<g>
	<path style="fill:#4DCFE0;" d="M427.886,86.204c-4.18,0-7.837-1.567-10.971-4.702c-6.269-6.269-6.269-16.196,0-21.943
		l54.857-54.857c6.269-6.269,16.196-6.269,21.943,0c6.269,6.269,6.269,16.196,0,21.943l-54.857,54.857
		C435.722,84.637,432.065,86.204,427.886,86.204z"/>
	
		<rect x="140.039" y="269.582" transform="matrix(-0.7084 -0.7058 0.7058 -0.7084 2.5515 747.6283)" style="fill:#4DCFE0;" width="31.347" height="207.411"/>
	
		<rect x="109.186" y="238.758" transform="matrix(-0.7084 -0.7058 0.7058 -0.7084 -28.4016 673.1937)" style="fill:#4DCFE0;" width="31.347" height="207.411"/>
	<path style="fill:#4DCFE0;" d="M119.118,498.416c-4.18,0-7.837-1.567-10.971-4.702L4.702,390.269
		c-6.269-5.747-6.269-15.673,0-21.943s16.196-6.269,21.943,0L130.09,471.771c6.269,6.269,6.269,16.196,0,21.943
		C126.955,496.849,123.298,498.416,119.118,498.416z"/>
</g>
<path style="fill:#1185E0;" d="M449.829,70.531l-21.943-21.943c-5.224-5.224-13.061-6.269-19.331-2.09l-64.784,39.184
	l-10.449-10.449c-6.269-6.269-16.196-6.269-21.943,0L90.906,295.184L72.62,276.898c-6.269-6.269-16.196-6.269-21.943,0
	c-6.269,6.269-6.269,16.196,0,21.943l148.898,148.898c3.135,3.135,7.314,4.702,10.971,4.702s7.837-1.567,10.971-4.702
	c6.269-6.269,6.269-16.196,0-21.943l-18.286-18.286l219.951-220.473c6.269-6.269,6.269-16.196,0-21.943l-10.449-10.449
	l39.184-64.784C456.098,83.592,455.053,75.755,449.829,70.531z M181.29,385.567l-68.441-68.441l56.947-56.424l67.918,67.918
	L181.29,385.567z M260.18,306.155l-67.918-67.918l130.09-130.09l67.918,67.918L260.18,306.155z M390.269,131.657l-23.51-23.51
	l48.065-29.257l4.702,4.702L390.269,131.657z"/>
<g>
</g>
<g>
</g>
<g>
</g>
<g>
</g>
<g>
</g>
<g>
</g>
<g>
</g>
<g>
</g>
<g>
</g>
<g>
</g>
<g>
</g>
<g>
</g>
<g>
</g>
<g>
</g>
<g>
</g>
</svg>
