<?xml version="1.0" encoding="iso-8859-1"?>
<!-- Generator: Adobe Illustrator 19.0.0, SVG Export Plug-In . SVG Version: 6.00 Build 0)  -->
<svg version="1.1" id="Capa_1" xmlns="http://www.w3.org/2000/svg" xmlns:xlink="http://www.w3.org/1999/xlink" x="0px" y="0px"
	 viewBox="0 0 471.771 471.771" style="enable-background:new 0 0 471.771 471.771;" xml:space="preserve">
<path style="fill:#1185E0;" d="M344.033,22.465h-36.571v-6.792C307.461,6.792,300.669,0,291.788,0
	c-8.882,0-15.673,6.792-15.673,15.673v43.886c0,8.882,6.792,15.673,15.673,15.673c8.882,0,15.673-6.792,15.673-15.673v-5.747h20.898
	v70.008c0,52.767-42.841,95.608-95.608,95.608h-7.314c-52.767,0-95.608-42.841-95.608-95.608V53.812h22.465v5.747
	c0,8.882,6.792,15.673,15.673,15.673s15.673-6.792,15.673-15.673V15.673C183.641,6.792,176.849,0,167.967,0
	s-15.673,6.792-15.673,15.673v6.792h-38.139c-8.882,0-15.673,6.792-15.673,15.673v85.682c0,66.351,51.2,120.686,115.984,126.433
	v73.143h-50.678c-40.751,0-74.188,33.437-74.188,74.188s33.437,74.188,74.71,74.188h7.314c40.751,0,74.188-33.437,74.188-74.188
	v-42.841h53.29v-31.347h-53.29v-73.143c63.739-6.792,113.894-60.604,113.894-126.433V38.139
	C359.706,29.257,352.914,22.465,344.033,22.465z M214.465,397.584c0,23.51-19.331,42.841-42.841,42.841h-7.314
	c-24.555,0-43.363-18.808-43.363-42.841c0-23.51,19.331-42.841,42.841-42.841h50.678V397.584z"/>
<path style="fill:#4DCFE0;" d="M333.061,388.18c-27.167,0-49.11-21.943-49.11-49.11s21.943-49.11,49.11-49.11
	c27.167,0,49.11,21.943,49.11,49.11S360.229,388.18,333.061,388.18z M333.061,321.306c-9.927,0-17.763,7.837-17.763,17.763
	s7.837,17.763,17.763,17.763c9.927,0,17.763-7.837,17.763-17.763S342.988,321.306,333.061,321.306z"/>
<g>
</g>
<g>
</g>
<g>
</g>
<g>
</g>
<g>
</g>
<g>
</g>
<g>
</g>
<g>
</g>
<g>
</g>
<g>
</g>
<g>
</g>
<g>
</g>
<g>
</g>
<g>
</g>
<g>
</g>
</svg>
