<?xml version="1.0" encoding="iso-8859-1"?>
<!-- Generator: Adobe Illustrator 19.0.0, SVG Export Plug-In . SVG Version: 6.00 Build 0)  -->
<svg version="1.1" id="Capa_1" xmlns="http://www.w3.org/2000/svg" xmlns:xlink="http://www.w3.org/1999/xlink" x="0px" y="0px"
	 viewBox="0 0 485.878 485.878" style="enable-background:new 0 0 485.878 485.878;" xml:space="preserve">
<path style="fill:#1185E0;" d="M404.898,119.641h-22.465V89.339c0-8.882-6.792-15.673-15.673-15.673h-26.645V15.673
	C340.114,6.792,333.322,0,324.441,0H122.776c-8.882,0-15.673,6.792-15.673,15.673v57.992H80.98c-8.882,0-15.673,6.792-15.673,15.673
	v307.2c0,8.882,6.792,15.673,15.673,15.673h26.122v57.992c0,8.882,6.792,15.673,15.673,15.673h201.665
	c8.882,0,15.673-6.792,15.673-15.673v-57.992h26.645c8.882,0,15.673-6.792,15.673-15.673v-30.302h6.792
	c8.882,0,15.673-6.792,15.673-15.673V281.6c0-8.882-6.792-15.673-15.673-15.673h-6.792v-45.976h22.465
	c8.882,0,15.673-6.792,15.673-15.673v-68.963C420.571,126.433,413.78,119.641,404.898,119.641z M138.449,31.347h170.318v42.318
	H138.449V31.347z M308.767,454.531H138.449v-42.318h170.318V454.531z M351.086,380.865H96.653V105.012h254.433V380.865z
	 M389.224,188.604h-6.792v-37.616h6.792V188.604z"/>
<path style="fill:#4DCFE0;" d="M255.478,306.155c-0.522,0-1.045,0-1.567,0c-6.269-0.522-11.494-4.702-13.584-10.449l-21.42-62.171
	l-18.286,40.751c-2.09,4.702-6.269,7.837-11.494,8.882c-5.224,1.045-10.449-0.522-14.106-4.18l-27.167-27.167h-14.629
	c-8.882,0-15.673-6.792-15.673-15.673s6.792-15.673,15.673-15.673h21.42c4.18,0,8.359,1.567,10.971,4.702l15.673,15.673
	l25.078-56.424c2.612-5.747,8.359-9.404,15.151-9.404c6.269,0.522,12.016,4.702,14.106,10.449l22.988,67.396l11.494-20.376
	c2.612-4.702,7.837-7.837,13.584-7.837h27.167c8.882,0,15.673,6.792,15.673,15.673S319.739,256,310.857,256h-17.763l-24.033,42.318
	C266.449,303.02,261.224,306.155,255.478,306.155z"/>
<g>
</g>
<g>
</g>
<g>
</g>
<g>
</g>
<g>
</g>
<g>
</g>
<g>
</g>
<g>
</g>
<g>
</g>
<g>
</g>
<g>
</g>
<g>
</g>
<g>
</g>
<g>
</g>
<g>
</g>
</svg>
