<?xml version="1.0" encoding="iso-8859-1"?>
<!-- Generator: Adobe Illustrator 19.0.0, SVG Export Plug-In . SVG Version: 6.00 Build 0)  -->
<svg version="1.1" id="Capa_1" xmlns="http://www.w3.org/2000/svg" xmlns:xlink="http://www.w3.org/1999/xlink" x="0px" y="0px"
	 viewBox="0 0 449.306 449.306" style="enable-background:new 0 0 449.306 449.306;" xml:space="preserve">
<path style="fill:#1185E0;" d="M303.543,358.4c-0.522,0-1.045,0-1.567,0c-6.269-0.522-11.494-4.702-13.584-10.449L219.429,149.42
	L155.69,295.184c-2.09,4.702-6.269,8.359-11.494,8.882c-5.224,1.045-10.449-0.522-14.106-4.18l-70.531-70.008H15.673
	C6.792,229.878,0,223.086,0,214.204s6.792-15.673,15.673-15.673h50.155c4.18,0,7.837,1.567,10.971,4.702l59.559,58.514
	L206.89,100.31c2.612-5.747,8.359-9.404,15.151-9.404c6.269,0,12.016,4.18,14.106,10.449l70.531,203.233l49.633-87.771
	c2.612-4.702,7.837-7.837,13.584-7.837h63.739c8.882,0,15.673,6.792,15.673,15.673s-6.792,15.673-15.673,15.673h-54.335
	l-62.171,110.237C314.514,355.265,309.29,358.4,303.543,358.4z"/>
<g>
</g>
<g>
</g>
<g>
</g>
<g>
</g>
<g>
</g>
<g>
</g>
<g>
</g>
<g>
</g>
<g>
</g>
<g>
</g>
<g>
</g>
<g>
</g>
<g>
</g>
<g>
</g>
<g>
</g>
</svg>
