<?xml version="1.0" encoding="iso-8859-1"?>
<!-- Generator: Adobe Illustrator 19.0.0, SVG Export Plug-In . SVG Version: 6.00 Build 0)  -->
<svg version="1.1" id="Capa_1" xmlns="http://www.w3.org/2000/svg" xmlns:xlink="http://www.w3.org/1999/xlink" x="0px" y="0px"
	 viewBox="0 0 492.669 492.669" style="enable-background:new 0 0 492.669 492.669;" xml:space="preserve">
<path style="fill:#1185E0;" d="M406.204,67.918h-62.171V47.02c0-8.882-6.792-15.673-15.673-15.673h-32.914
	C286.563,12.539,267.233,0,245.812,0c-21.42,0-40.229,12.539-49.633,31.347h-32.392c-8.882,0-15.673,6.792-15.673,15.673v20.898
	H86.465c-14.629,0-26.122,11.494-26.122,26.122v372.506c0,14.629,11.494,26.122,26.122,26.122h319.739
	c14.629,0,26.122-11.494,26.122-26.122V94.041C432.327,79.412,420.833,67.918,406.204,67.918z M179.461,62.694h27.69
	c7.314,0,13.584-5.224,15.151-12.016c2.09-9.404,10.449-19.331,23.51-19.331c11.494,0,20.898,7.837,23.51,18.808
	c1.567,7.314,7.837,12.539,15.151,12.539h28.212v39.184H179.461V62.694z M400.98,461.322H91.69V99.265h56.424v18.286
	c0,8.882,6.792,15.673,15.673,15.673h164.571c8.882,0,15.673-6.792,15.673-15.673V99.265h56.947V461.322z"/>
<g>
	<path style="fill:#4DCFE0;" d="M226.482,218.906h-64.784c-8.882,0-15.673-6.792-15.673-15.673s6.792-15.673,15.673-15.673h64.784
		c8.882,0,15.673,6.792,15.673,15.673S235.363,218.906,226.482,218.906z"/>
	<path style="fill:#4DCFE0;" d="M330.971,281.6H161.698c-8.882,0-15.673-6.792-15.673-15.673c0-8.882,6.792-15.673,15.673-15.673
		h169.273c8.882,0,15.673,6.792,15.673,15.673C346.645,274.808,339.853,281.6,330.971,281.6z"/>
	<path style="fill:#4DCFE0;" d="M330.971,344.294H161.698c-8.882,0-15.673-6.792-15.673-15.673s6.792-15.673,15.673-15.673h169.273
		c8.882,0,15.673,6.792,15.673,15.673C346.645,337.502,339.853,344.294,330.971,344.294z"/>
	<path style="fill:#4DCFE0;" d="M330.971,406.988H161.698c-8.882,0-15.673-6.792-15.673-15.673s6.792-15.673,15.673-15.673h169.273
		c8.882,0,15.673,6.792,15.673,15.673S339.853,406.988,330.971,406.988z"/>
</g>
<g>
</g>
<g>
</g>
<g>
</g>
<g>
</g>
<g>
</g>
<g>
</g>
<g>
</g>
<g>
</g>
<g>
</g>
<g>
</g>
<g>
</g>
<g>
</g>
<g>
</g>
<g>
</g>
<g>
</g>
</svg>
