<?xml version="1.0" encoding="iso-8859-1"?>
<!-- Generator: Adobe Illustrator 19.0.0, SVG Export Plug-In . SVG Version: 6.00 Build 0)  -->
<svg version="1.1" id="Capa_1" xmlns="http://www.w3.org/2000/svg" xmlns:xlink="http://www.w3.org/1999/xlink" x="0px" y="0px"
	 viewBox="0 0 428.408 428.408" style="enable-background:new 0 0 428.408 428.408;" xml:space="preserve">
<path style="fill:#4DCFE0;" d="M286.302,161.959l-21.943-21.943l72.098-72.098l-30.302-30.302L184.947,158.302l-21.943-22.465
	L295.184,4.702c6.269-6.269,16.196-6.269,21.943,0l52.245,52.245c6.269,6.269,6.269,16.196,0,21.943L286.302,161.959z"/>
<path style="fill:#1185E0;" d="M412.212,150.988c0-8.359-7.314-15.673-15.673-15.673H36.571c-8.359,0-15.151,6.269-15.673,14.629
	l-5.747,98.743c0,3.135,0.522,6.269,2.09,8.882L80.457,362.58c2.612,4.702,7.837,7.837,13.584,7.837h12.539v42.318
	c0,8.882,6.792,15.673,15.673,15.673h183.902c8.882,0,15.673-6.792,15.673-15.673v-42.318H332.8c5.224,0,10.449-2.612,13.061-7.314
	l64.784-100.31c1.567-2.612,2.612-5.747,2.612-8.882L412.212,150.988z M380.865,166.661l0.522,67.396H47.02l4.18-67.396H380.865z
	 M290.482,397.061H137.927v-26.645h152.555L290.482,397.061L290.482,397.061z M324.441,339.069H102.922l-44.408-73.665h313.469
	L324.441,339.069z"/>
<g>
</g>
<g>
</g>
<g>
</g>
<g>
</g>
<g>
</g>
<g>
</g>
<g>
</g>
<g>
</g>
<g>
</g>
<g>
</g>
<g>
</g>
<g>
</g>
<g>
</g>
<g>
</g>
<g>
</g>
</svg>
