<?xml version="1.0" encoding="iso-8859-1"?>
<!-- Generator: Adobe Illustrator 19.0.0, SVG Export Plug-In . SVG Version: 6.00 Build 0)  -->
<svg version="1.1" id="Capa_1" xmlns="http://www.w3.org/2000/svg" xmlns:xlink="http://www.w3.org/1999/xlink" x="0px" y="0px"
	 viewBox="0 0 480.653 480.653" style="enable-background:new 0 0 480.653 480.653;" xml:space="preserve">
<g>
	
		<rect x="263.412" y="375.976" transform="matrix(-0.7071 -0.7071 0.7071 -0.7071 265.9341 893.4522)" style="fill:#4DCFE0;" width="109.191" height="31.347"/>
	
		<rect x="337.057" y="302.311" transform="matrix(-0.7071 -0.7071 0.7071 -0.7071 443.7441 819.7729)" style="fill:#4DCFE0;" width="109.191" height="31.347"/>
	
		<rect x="34.044" y="147.147" transform="matrix(-0.7095 -0.7047 0.7047 -0.7095 37.2368 340.9914)" style="fill:#4DCFE0;" width="109.714" height="31.347"/>
	
		<rect x="107.953" y="73.589" transform="matrix(-0.7047 -0.7095 0.7095 -0.7047 214.2102 267.6797)" style="fill:#4DCFE0;" width="109.714" height="31.347"/>
	
		<rect x="69.557" y="263.14" transform="matrix(-0.7047 -0.7095 0.7095 -0.7047 -80.3273 602.5622)" style="fill:#4DCFE0;" width="31.347" height="109.714"/>
	
		<rect x="143.87" y="337.057" transform="matrix(-0.7072 -0.707 0.707 -0.7072 -4.5279 781.4299)" style="fill:#4DCFE0;" width="31.347" height="109.191"/>
	
		<rect x="302.688" y="30.374" transform="matrix(-0.7095 -0.7047 0.7047 -0.7095 484.1772 370.0521)" style="fill:#4DCFE0;" width="31.347" height="109.714"/>
	
		<rect x="376.337" y="104.546" transform="matrix(-0.707 -0.7072 0.7072 -0.707 556.6175 548.8884)" style="fill:#4DCFE0;" width="31.347" height="109.191"/>
</g>
<g>
	<path style="fill:#1185E0;" d="M240.327,480.653C107.624,480.653,0,373.029,0,240.327S107.624,0,240.327,0
		s240.327,107.624,240.327,240.327S373.029,480.653,240.327,480.653z M240.327,31.347c-115.461,0-208.98,93.518-208.98,208.98
		s93.518,208.98,208.98,208.98s208.98-93.518,208.98-208.98S355.788,31.347,240.327,31.347z"/>
	<path style="fill:#1185E0;" d="M240.327,376.163c-74.71,0-135.837-61.127-135.837-135.837S165.616,104.49,240.327,104.49
		s135.837,61.127,135.837,135.837S315.037,376.163,240.327,376.163z M240.327,135.837c-57.469,0-104.49,47.02-104.49,104.49
		s47.02,104.49,104.49,104.49s104.49-47.02,104.49-104.49S297.796,135.837,240.327,135.837z"/>
</g>
<g>
</g>
<g>
</g>
<g>
</g>
<g>
</g>
<g>
</g>
<g>
</g>
<g>
</g>
<g>
</g>
<g>
</g>
<g>
</g>
<g>
</g>
<g>
</g>
<g>
</g>
<g>
</g>
<g>
</g>
</svg>
