<?xml version="1.0" encoding="iso-8859-1"?>
<!-- Generator: Adobe Illustrator 19.0.0, SVG Export Plug-In . SVG Version: 6.00 Build 0)  -->
<svg version="1.1" id="Capa_1" xmlns="http://www.w3.org/2000/svg" xmlns:xlink="http://www.w3.org/1999/xlink" x="0px" y="0px"
	 viewBox="0 0 462.89 462.89" style="enable-background:new 0 0 462.89 462.89;" xml:space="preserve">
<g>
	
		<rect x="172.897" y="203.344" transform="matrix(-0.7036 -0.7106 0.7106 -0.7036 203.4417 522.8941)" style="fill:#4DCFE0;" width="75.755" height="31.347"/>
	
		<rect x="229.538" y="140.199" transform="matrix(-0.7071 -0.7071 0.7071 -0.7071 319.5323 444.0988)" style="fill:#4DCFE0;" width="44.408" height="31.347"/>
	
		<rect x="126.092" y="243.644" transform="matrix(-0.7071 -0.7071 0.7071 -0.7071 69.7928 547.5431)" style="fill:#4DCFE0;" width="44.408" height="31.347"/>
</g>
<path style="fill:#1185E0;" d="M457.927,4.702c-6.269-6.269-16.196-6.269-21.943,0L330.449,109.714
	c-24.555-23.51-63.216-23.51-87.771,1.045L69.747,284.212c-6.269,6.269-6.269,16.196,0,21.943l32.392,32.392L61.91,378.775
	l-35.004-35.004c-6.269-6.269-16.196-6.269-21.943,0c-6.269,6.269-6.269,16.196,0,21.943l92.473,92.473
	c3.135,3.135,7.314,4.702,10.971,4.702c4.18,0,7.837-1.567,10.971-4.702c6.269-6.269,6.269-16.196,0-21.943l-35.004-35.004
	l40.229-40.229l34.482,34.482c3.135,3.135,6.792,4.702,10.971,4.702l0,0c4.18,0,8.359-1.567,10.971-4.702l172.931-174.498
	c12.016-12.016,18.286-27.69,18.286-44.408s-6.792-32.392-18.808-43.886l-0.522-0.522L457.927,26.645
	C464.196,20.376,464.196,10.971,457.927,4.702z M332.016,199.053L332.016,199.053L169.535,362.057l-66.873-66.873l162.482-162.482
	c12.016-12.016,31.869-12.016,44.408,0l21.943,21.943c6.269,5.747,9.404,13.584,9.404,21.943
	C340.898,184.947,337.763,192.784,332.016,199.053z"/>
<g>
</g>
<g>
</g>
<g>
</g>
<g>
</g>
<g>
</g>
<g>
</g>
<g>
</g>
<g>
</g>
<g>
</g>
<g>
</g>
<g>
</g>
<g>
</g>
<g>
</g>
<g>
</g>
<g>
</g>
</svg>
