<?xml version="1.0" encoding="iso-8859-1"?>
<!-- Generator: Adobe Illustrator 19.0.0, SVG Export Plug-In . SVG Version: 6.00 Build 0)  -->
<svg version="1.1" id="Capa_1" xmlns="http://www.w3.org/2000/svg" xmlns:xlink="http://www.w3.org/1999/xlink" x="0px" y="0px"
	 viewBox="0 0 465.914 465.914" style="enable-background:new 0 0 465.914 465.914;" xml:space="preserve">
<path style="fill:#1185E0;" d="M460.571,196.255L245.322,8.696c-5.747-5.224-14.629-5.224-20.376,0L5.518,196.255
	c-6.792,5.747-7.314,15.673-1.567,21.943c3.135,3.657,7.314,5.747,12.016,5.747c3.657,0,7.314-1.045,9.927-3.657l26.645-22.465
	v247.641c0,8.882,6.792,15.673,15.673,15.673H398.4c8.882,0,15.673-6.792,15.673-15.673V197.3l26.122,22.988
	c6.269,5.747,16.196,5.224,21.943-1.567C467.886,211.929,466.841,202.002,460.571,196.255z M382.204,429.79H83.363V170.655
	l151.51-129.567l147.331,129.045V429.79z"/>
<path style="fill:#4DCFE0;" d="M233.306,394.786c-2.612,0-5.224,0-8.882-1.567c-85.159-34.482-113.894-98.743-103.967-147.331
	c6.269-36.049,33.437-60.082,66.873-60.082c14.629,0,30.302,4.702,45.975,14.629c14.629-9.404,30.302-14.106,45.453-14.106
	c33.437,0,59.559,22.988,66.873,59.037l0,0c9.404,48.065-18.808,112.327-103.445,147.331
	C238.531,394.786,235.918,394.786,233.306,394.786z M187.331,217.153c-18.808,0-32.392,13.061-36.049,33.959
	c-6.792,35.527,15.673,83.592,82.024,111.282c46.498-19.853,91.429-62.694,82.025-110.759c-4.18-21.42-17.763-33.959-36.571-33.959
	c-11.494,0-24.033,4.702-36.049,14.106c-5.747,4.18-13.061,4.18-18.808,0C210.841,222.378,198.302,217.153,187.331,217.153z"/>
<g>
</g>
<g>
</g>
<g>
</g>
<g>
</g>
<g>
</g>
<g>
</g>
<g>
</g>
<g>
</g>
<g>
</g>
<g>
</g>
<g>
</g>
<g>
</g>
<g>
</g>
<g>
</g>
<g>
</g>
</svg>
