<?xml version="1.0" encoding="iso-8859-1"?>
<!-- Generator: Adobe Illustrator 19.0.0, SVG Export Plug-In . SVG Version: 6.00 Build 0)  -->
<svg version="1.1" id="Capa_1" xmlns="http://www.w3.org/2000/svg" xmlns:xlink="http://www.w3.org/1999/xlink" x="0px" y="0px"
	 viewBox="0 0 512.522 512.522" style="enable-background:new 0 0 512.522 512.522;" xml:space="preserve">
<path style="fill:#4DCFE0;" d="M256,298.318c-2.09,0-5.747,0-9.927-1.567C129.567,250.253,89.861,162.482,102.4,96.653
	c9.404-48.065,43.886-78.89,88.294-78.89c21.42,0,42.841,7.314,64.784,20.898c21.42-14.106,43.363-20.898,64.261-20.898
	c44.408,0,79.412,30.824,88.294,78.367l0,0c6.792,35.527-1.567,74.188-24.033,108.669c-24.033,38.139-65.306,70.008-118.073,91.951
	C261.747,298.318,258.09,298.318,256,298.318z M191.216,48.588c-29.257,0-51.2,20.376-57.992,53.812
	C123.298,155.167,157.257,226.743,256,266.449c98.22-40.751,132.18-111.804,122.253-164.571
	c-6.269-32.914-28.735-53.29-57.992-53.29c-17.241,0-36.571,7.837-54.857,21.42c-5.747,4.18-13.061,4.18-18.808,0
	C227.265,55.902,208.457,48.588,191.216,48.588z"/>
<g>
	<path style="fill:#1185E0;" d="M113.371,494.759h-0.522c-8.882-0.522-15.151-7.837-15.151-16.196l1.045-26.645l-87.249-90.906
		C4.18,353.698,0,343.249,0,332.8V219.429c0-19.331,16.196-35.527,35.527-35.527h0.522c19.853,0,35.527,15.151,36.571,35.527
		c0.522,26.645,1.045,70.008,1.567,84.637l32.914,42.841h1.045l-17.241-31.869c-8.882-16.196-3.657-37.094,12.016-47.543
		s37.094-6.269,48.065,8.359l57.992,76.8c5.224,6.792,7.837,14.106,8.882,21.943c0,0.522,0,0.522,0,1.045l4.702,101.878
		c0.522,8.882-6.269,16.196-15.151,16.196c-8.359,0.522-16.196-6.269-16.196-15.151l-4.702-101.355
		c-0.522-2.09-1.045-3.657-2.612-5.747l-57.992-76.8c-1.567-2.09-4.18-2.09-6.269-1.045c-1.567,1.045-3.135,3.657-1.567,5.747
		l28.212,51.2c2.612,4.702,2.612,9.927,0.522,14.629c-2.09,4.702-6.792,7.837-11.494,8.359l-32.392,5.224
		c-5.747,1.045-11.494-1.567-15.151-5.747l-41.796-54.335c-2.09-2.612-3.135-5.747-3.135-9.404c0,0-1.045-57.469-1.567-89.339
		c0-2.09-1.567-4.702-5.224-4.702h-0.522c-2.09,0-4.18,2.09-4.18,4.18V332.8c0,2.09,1.045,4.702,2.612,6.269l91.951,95.608
		c3.135,3.135,4.702,7.314,4.18,11.494l-1.567,33.437C128.522,487.967,121.731,494.759,113.371,494.759z"/>
	<path style="fill:#1185E0;" d="M398.629,494.759c-8.359,0-15.151-6.792-15.673-15.151l-1.567-33.437
		c0-4.18,1.567-8.359,4.18-11.494l92.473-95.608c2.09-2.09,3.135-4.18,3.135-6.792V218.906c0-2.09-2.09-4.18-4.18-4.18
		c-4.18,0-5.747,2.612-5.747,5.224c-0.522,31.347-1.567,88.816-1.567,88.816c0,3.135-1.045,6.792-3.135,9.404l-41.796,54.335
		c-3.657,4.702-9.404,6.792-15.151,5.747l-32.392-5.224c-5.224-1.045-9.404-4.18-11.494-8.882c-2.09-4.702-2.09-9.927,0.522-14.629
		l28.212-50.678c1.045-2.09,0-4.702-1.567-5.747c-2.09-1.045-4.702-1.045-6.269,1.045l-58.514,77.322
		c-1.567,2.09-2.09,3.657-2.612,5.747l-4.702,101.355c-0.522,8.882-7.314,15.151-16.196,15.151
		c-8.882-0.522-15.151-7.837-15.151-16.196l4.702-101.878c0-0.522,0-0.522,0-1.045c1.045-7.837,3.657-15.151,8.882-21.943
		l58.514-76.8c10.971-14.629,32.392-18.808,48.065-8.359c15.673,10.449,20.898,30.824,12.016,47.543l-17.241,31.347h1.045
		l32.914-42.841c0.522-14.629,1.045-57.992,1.567-84.114c1.045-20.376,16.718-36.049,36.571-36.049
		c19.853,0,36.049,16.196,36.049,35.527v113.371c0,10.971-4.18,21.42-12.016,28.735l-87.249,90.906l1.045,26.645
		c0.522,8.882-6.269,16.196-15.151,16.196C399.151,494.759,398.629,494.759,398.629,494.759z"/>
</g>
<g>
</g>
<g>
</g>
<g>
</g>
<g>
</g>
<g>
</g>
<g>
</g>
<g>
</g>
<g>
</g>
<g>
</g>
<g>
</g>
<g>
</g>
<g>
</g>
<g>
</g>
<g>
</g>
<g>
</g>
</svg>
