<?xml version="1.0" encoding="iso-8859-1"?>
<!-- Generator: Adobe Illustrator 19.0.0, SVG Export Plug-In . SVG Version: 6.00 Build 0)  -->
<svg version="1.1" id="Capa_1" xmlns="http://www.w3.org/2000/svg" xmlns:xlink="http://www.w3.org/1999/xlink" x="0px" y="0px"
	 viewBox="0 0 475.26 475.26" style="enable-background:new 0 0 475.26 475.26;" xml:space="preserve">
<path style="fill:#1185E0;" d="M470.027,220.454L247.986,14.61c-6.269-5.747-15.151-5.747-21.42,0L5.048,220.454
	c-6.269,5.747-6.792,15.673-1.045,21.943s15.673,6.792,21.943,1.045l29.257-27.167v233.012c0,8.882,6.792,15.673,15.673,15.673
	h333.322c8.882,0,15.673-6.792,15.673-15.673V216.275l29.257,27.167c3.135,2.612,6.792,4.18,10.449,4.18
	c4.18,0,8.359-1.567,11.494-5.224C476.819,236.128,476.819,226.201,470.027,220.454z M388.525,433.614H86.55V187.54L237.538,47.524
	L388.525,187.54V433.614z"/>
<g>
	<path style="fill:#4DCFE0;" d="M281.946,270.61h-28.735v-28.735c0-8.882-6.792-15.673-15.673-15.673s-15.673,6.792-15.673,15.673
		v28.735h-28.735c-8.882,0-15.673,6.792-15.673,15.673c0,8.882,6.792,15.673,15.673,15.673h28.735v28.735
		c0,8.882,6.792,15.673,15.673,15.673s15.673-6.792,15.673-15.673v-28.735h28.735c8.882,0,15.673-6.792,15.673-15.673
		C297.619,277.401,290.827,270.61,281.946,270.61z"/>
	<path style="fill:#4DCFE0;" d="M237.538,165.075c-66.873,0-121.208,54.335-121.208,121.208s54.335,121.208,121.208,121.208
		s121.208-54.335,121.208-121.208S304.411,165.075,237.538,165.075z M237.538,376.144c-49.633,0-89.861-40.229-89.861-89.861
		s40.229-89.861,89.861-89.861s89.861,40.229,89.861,89.861S287.17,376.144,237.538,376.144z"/>
</g>
<g>
</g>
<g>
</g>
<g>
</g>
<g>
</g>
<g>
</g>
<g>
</g>
<g>
</g>
<g>
</g>
<g>
</g>
<g>
</g>
<g>
</g>
<g>
</g>
<g>
</g>
<g>
</g>
<g>
</g>
</svg>
