<?xml version="1.0" encoding="iso-8859-1"?>
<!-- Generator: Adobe Illustrator 19.0.0, SVG Export Plug-In . SVG Version: 6.00 Build 0)  -->
<svg version="1.1" id="Capa_1" xmlns="http://www.w3.org/2000/svg" xmlns:xlink="http://www.w3.org/1999/xlink" x="0px" y="0px"
	 viewBox="0 0 453.486 453.486" style="enable-background:new 0 0 453.486 453.486;" xml:space="preserve">
<g>
	<rect x="142.106" y="240.065" style="fill:#4DCFE0;" width="164.049" height="31.347"/>
	<rect x="142.106" y="187.298" style="fill:#4DCFE0;" width="164.049" height="31.347"/>
</g>
<g>
	<path style="fill:#1185E0;" d="M142.629,97.437H68.441c-8.882,0-15.673,6.792-15.673,15.673v31.869H15.673
		C6.792,144.98,0,151.771,0,160.653V292.31c0,8.882,6.792,15.673,15.673,15.673h37.094v32.392c0,8.882,6.792,15.673,15.673,15.673
		h74.188c8.882,0,15.673-6.792,15.673-15.673V113.11C158.302,104.229,151.51,97.437,142.629,97.437z M31.347,276.637v-100.31h21.42
		v100.31L31.347,276.637L31.347,276.637z M126.955,324.702H84.114V128.784h42.841C126.955,128.784,126.955,324.702,126.955,324.702z
		"/>
	<path style="fill:#1185E0;" d="M437.812,144.98h-36.571V113.11c0-8.882-6.792-15.673-15.673-15.673H311.38
		c-8.882,0-15.673,6.792-15.673,15.673v227.265c0,8.882,6.792,15.673,15.673,15.673h74.188c8.882,0,15.673-6.792,15.673-15.673
		v-32.392h36.571c8.882,0,15.673-6.792,15.673-15.673V160.653C453.486,151.771,446.694,144.98,437.812,144.98z M369.894,324.702
		h-42.841V128.784h42.841V324.702z M422.139,276.637h-20.898v-100.31h20.898V276.637z"/>
</g>
<g>
</g>
<g>
</g>
<g>
</g>
<g>
</g>
<g>
</g>
<g>
</g>
<g>
</g>
<g>
</g>
<g>
</g>
<g>
</g>
<g>
</g>
<g>
</g>
<g>
</g>
<g>
</g>
<g>
</g>
</svg>
