<?xml version="1.0" encoding="iso-8859-1"?>
<!-- Generator: Adobe Illustrator 19.0.0, SVG Export Plug-In . SVG Version: 6.00 Build 0)  -->
<svg version="1.1" id="Capa_1" xmlns="http://www.w3.org/2000/svg" xmlns:xlink="http://www.w3.org/1999/xlink" x="0px" y="0px"
	 viewBox="0 0 485.878 485.878" style="enable-background:new 0 0 485.878 485.878;" xml:space="preserve">
<path style="fill:#1185E0;" d="M410.122,45.453h-69.486v-29.78C340.637,6.792,333.845,0,324.963,0H161.437
	c-8.882,0-15.673,6.792-15.673,15.673v29.78H75.755c-17.763,0-31.347,13.584-31.347,31.347v377.731
	c0,17.763,13.584,31.347,31.347,31.347h334.367c17.763,0,31.347-13.584,31.347-31.347V76.8
	C441.469,59.037,427.886,45.453,410.122,45.453z M177.11,31.347h132.18v74.71H177.11V31.347z M324.963,137.404
	c8.882,0,15.673-6.792,15.673-15.673v-0.522h10.449v266.449H134.792V121.208h10.971v0.522c0,8.882,6.792,15.673,15.673,15.673
	C161.437,137.404,324.963,137.404,324.963,137.404z M410.122,454.531H75.755V76.8h70.008v13.061h-26.645
	c-8.882,0-15.673,6.792-15.673,15.673v297.796c0,8.882,6.792,15.673,15.673,15.673h247.641c8.882,0,15.673-6.792,15.673-15.673
	V105.535c0-8.882-6.792-15.673-15.673-15.673h-26.122V76.8h69.486V454.531z"/>
<g>
	<path style="fill:#4DCFE0;" d="M318.171,222.041h-43.363c-8.882,0-15.673-6.792-15.673-15.673s6.792-15.673,15.673-15.673h43.363
		c8.882,0,15.673,6.792,15.673,15.673S327.053,222.041,318.171,222.041z"/>
	<path style="fill:#4DCFE0;" d="M227.788,250.253h-56.424c-8.882,0-15.673-6.792-15.673-15.673v-56.424
		c0-8.882,6.792-15.673,15.673-15.673h56.424c8.882,0,15.673,6.792,15.673,15.673v56.424
		C243.461,243.461,236.669,250.253,227.788,250.253z M187.037,218.906h25.078v-25.078h-25.078V218.906z"/>
	<path style="fill:#4DCFE0;" d="M318.171,333.322h-43.363c-8.882,0-15.673-6.792-15.673-15.673s6.792-15.673,15.673-15.673h43.363
		c8.882,0,15.673,6.792,15.673,15.673S327.053,333.322,318.171,333.322z"/>
	<path style="fill:#4DCFE0;" d="M227.788,361.535h-56.424c-8.882,0-15.673-6.792-15.673-15.673v-56.424
		c0-8.882,6.792-15.673,15.673-15.673h56.424c8.882,0,15.673,6.792,15.673,15.673v56.424
		C243.461,354.743,236.669,361.535,227.788,361.535z M187.037,330.188h25.078V305.11h-25.078V330.188z"/>
</g>
<g>
</g>
<g>
</g>
<g>
</g>
<g>
</g>
<g>
</g>
<g>
</g>
<g>
</g>
<g>
</g>
<g>
</g>
<g>
</g>
<g>
</g>
<g>
</g>
<g>
</g>
<g>
</g>
<g>
</g>
</svg>
