<?xml version="1.0" encoding="iso-8859-1"?>
<!-- Generator: Adobe Illustrator 19.0.0, SVG Export Plug-In . SVG Version: 6.00 Build 0)  -->
<svg version="1.1" id="Capa_1" xmlns="http://www.w3.org/2000/svg" xmlns:xlink="http://www.w3.org/1999/xlink" x="0px" y="0px"
	 viewBox="0 0 449.306 449.306" style="enable-background:new 0 0 449.306 449.306;" xml:space="preserve">
<path style="fill:#1185E0;" d="M376.163,449.306H73.143c-14.629,0-26.122-11.494-26.122-26.122V26.122
	C47.02,11.494,58.514,0,73.143,0h303.02c14.629,0,26.122,11.494,26.122,26.122v397.061
	C402.286,437.812,390.792,449.306,376.163,449.306z M78.367,417.959h292.571V31.347H78.367V417.959z"/>
<g>
	<path style="fill:#4DCFE0;" d="M276.898,318.694h-104.49c-8.882,0-15.673-6.792-15.673-15.673c0-8.882,6.792-15.673,15.673-15.673
		h104.49c8.882,0,15.673,6.792,15.673,15.673C292.571,311.902,285.78,318.694,276.898,318.694z"/>
	<path style="fill:#4DCFE0;" d="M318.694,376.163H130.612c-8.882,0-15.673-6.792-15.673-15.673c0-8.882,6.792-15.673,15.673-15.673
		h188.082c8.882,0,15.673,6.792,15.673,15.673C334.367,369.371,327.576,376.163,318.694,376.163z"/>
	<path style="fill:#4DCFE0;" d="M224.653,254.433c-4.18,0-7.837-1.567-10.971-4.702l-71.576-71.053c-25.6-25.6-25.6-67.396,0-92.996
		c12.539-12.539,28.735-19.331,46.498-19.331c13.061,0,25.6,3.657,36.049,10.971c25.6-16.718,60.082-14.106,82.547,8.359
		c12.016,12.016,19.331,29.257,19.331,45.976c0,17.241-6.792,34.482-19.331,46.498l-71.576,71.576
		C232.49,252.865,228.833,254.433,224.653,254.433z M188.604,98.22c-9.404,0-17.763,3.657-24.555,9.927
		c-13.061,13.061-13.061,35.004,0,48.588l60.604,60.082l60.604-60.082c6.269-6.269,9.927-15.151,9.927-24.555
		c0-8.882-3.657-17.763-9.927-24.033c-13.061-13.061-35.004-13.061-48.588,0l-1.045,1.045c-6.269,6.269-16.196,6.269-21.943,0
		l-1.045-1.045C206.367,101.878,198.008,98.22,188.604,98.22z"/>
</g>
<g>
</g>
<g>
</g>
<g>
</g>
<g>
</g>
<g>
</g>
<g>
</g>
<g>
</g>
<g>
</g>
<g>
</g>
<g>
</g>
<g>
</g>
<g>
</g>
<g>
</g>
<g>
</g>
<g>
</g>
</svg>
