<?xml version="1.0" encoding="iso-8859-1"?>
<!-- Generator: Adobe Illustrator 19.0.0, SVG Export Plug-In . SVG Version: 6.00 Build 0)  -->
<svg version="1.1" id="Capa_1" xmlns="http://www.w3.org/2000/svg" xmlns:xlink="http://www.w3.org/1999/xlink" x="0px" y="0px"
	 viewBox="0 0 413.453 413.453" style="enable-background:new 0 0 413.453 413.453;" xml:space="preserve">
<path style="fill:#1185E0;" d="M337.59,206.564l49.11-49.11c17.241-17.241,27.167-40.751,26.645-65.306
	c0-24.555-9.927-47.543-27.167-64.784c-17.241-17.241-40.751-27.167-65.306-27.167S272.807,9.6,255.566,27.364l-48.588,48.588
	l-49.11-49.11c-35.527-35.527-94.563-36.049-130.612,0C10.015,44.082,0.088,67.592,0.088,92.147
	c0,25.078,9.404,48.065,27.167,65.306l49.11,49.11l-49.11,49.11c-36.049,36.049-36.049,94.563,0,130.612
	c17.241,17.241,40.751,27.167,65.306,27.167c25.078,0,48.065-9.404,65.306-27.167l49.11-49.11l48.588,48.588
	c17.241,17.241,40.751,27.167,65.306,27.167c24.555,0,48.065-9.404,65.306-27.167c17.241-17.763,27.167-40.751,27.167-65.306
	s-9.404-48.065-27.167-65.306L337.59,206.564z M277.509,49.306c11.494-11.494,26.645-17.763,43.363-17.763
	c16.718,0,31.869,6.269,43.363,17.763c11.494,11.494,18.286,26.645,18.286,42.841s-6.269,31.347-17.763,42.841l-49.11,49.11
	l-86.727-86.204L277.509,49.306z M293.705,206.564l-86.727,86.727l-86.727-86.727l86.727-86.727L293.705,206.564z M49.199,135.511
	c-11.494-11.494-17.763-26.645-17.763-43.363s6.269-31.869,17.763-43.363c12.016-12.016,27.69-17.763,43.363-17.763
	s31.347,5.747,42.841,17.763l49.11,49.11l-86.204,86.727L49.199,135.511z M135.925,364.343
	c-11.494,11.494-26.645,17.763-43.363,17.763s-31.869-6.269-43.363-17.763c-24.033-24.033-24.033-62.694,0-86.727l49.11-49.11
	l86.727,86.727L135.925,364.343z M364.235,363.821c-11.494,11.494-26.645,17.763-43.363,17.763
	c-16.718,0-31.869-6.269-43.363-17.763l-48.588-48.588l86.727-86.727l48.588,48.588c11.494,11.494,17.763,26.645,17.763,43.363
	S375.729,352.327,364.235,363.821z"/>
<g>
	<path style="fill:#4DCFE0;" d="M176.676,197.16c-6.269-6.269-17.241-6.269-23.51,0c-6.269,6.269-6.269,17.241,0,23.51
		s17.241,6.269,23.51,0C183.468,213.878,183.468,203.429,176.676,197.16z"/>
	<path style="fill:#4DCFE0;" d="M216.382,236.866c-6.269-6.269-17.241-6.269-23.51,0c-6.269,6.269-6.269,17.241,0,23.51
		c6.269,6.269,17.241,6.269,23.51,0C223.174,254.106,223.174,243.135,216.382,236.866z"/>
	<path style="fill:#4DCFE0;" d="M221.084,152.751c-6.269-6.269-17.241-6.269-23.51,0s-6.269,17.241,0,23.51s17.241,6.269,23.51,0
		C227.354,169.992,227.354,159.021,221.084,152.751z"/>
	<path style="fill:#4DCFE0;" d="M260.79,192.457c-6.269-6.269-17.241-6.269-23.51,0c-6.269,6.269-6.269,17.241,0,23.51
		c6.269,6.269,17.241,6.269,23.51,0C267.582,209.698,267.582,199.249,260.79,192.457z"/>
</g>
<g>
</g>
<g>
</g>
<g>
</g>
<g>
</g>
<g>
</g>
<g>
</g>
<g>
</g>
<g>
</g>
<g>
</g>
<g>
</g>
<g>
</g>
<g>
</g>
<g>
</g>
<g>
</g>
<g>
</g>
</svg>
