<?xml version="1.0" encoding="iso-8859-1"?>
<!-- Generator: Adobe Illustrator 19.0.0, SVG Export Plug-In . SVG Version: 6.00 Build 0)  -->
<svg version="1.1" id="Capa_1" xmlns="http://www.w3.org/2000/svg" xmlns:xlink="http://www.w3.org/1999/xlink" x="0px" y="0px"
	 viewBox="0 0 457.665 457.665" style="enable-background:new 0 0 457.665 457.665;" xml:space="preserve">
<path style="fill:#4DCFE0;" d="M191.478,183.38l-20.376-24.033L310.073,41.796l28.212-36.049C340.898,2.09,345.078,0,349.78,0
	c4.702,0,8.882,1.567,12.016,4.702l48.065,48.065c3.135,3.135,4.702,7.314,4.702,12.016c0,4.702-2.612,8.359-5.747,11.494
	L373.29,104.49l-65.306,76.8l-24.033-20.376l66.351-78.367c0.522-0.522,1.567-1.567,2.09-2.09l22.988-18.286l-22.988-22.988
	l-18.286,22.988c-0.522,1.045-1.567,1.567-2.09,2.09L191.478,183.38z"/>
<path style="fill:#1185E0;" d="M421.355,154.645H36.31c-8.882,0-15.673,6.792-15.673,15.673v94.041
	c0,55.38,37.616,102.4,88.816,115.984v61.649c0,8.882,6.792,15.673,15.673,15.673h206.89c8.882,0,15.673-6.792,15.673-15.673
	v-61.649c50.678-14.106,88.816-60.604,89.339-115.984v-94.041C437.029,161.437,430.237,154.645,421.355,154.645z M405.682,185.992
	v35.004H51.984v-35.004H405.682z M316.343,426.318H140.8v-41.796h175.543V426.318z M316.343,353.176H140.8
	c-49.11,0-88.816-39.706-88.816-88.816v-12.016h353.698v12.016C405.159,313.992,365.976,353.176,316.343,353.176z"/>
<g>
</g>
<g>
</g>
<g>
</g>
<g>
</g>
<g>
</g>
<g>
</g>
<g>
</g>
<g>
</g>
<g>
</g>
<g>
</g>
<g>
</g>
<g>
</g>
<g>
</g>
<g>
</g>
<g>
</g>
</svg>
